<?xml version="1.0" encoding="UTF-8"?>
<svg id="Capa_2" data-name="Capa 2" xmlns="http://www.w3.org/2000/svg" viewBox="0 0 190.7 168.99">
  <defs>
    <style>
      .cls-1 {
        fill: #891912;
      }

      .cls-2 {
        fill: #2a7b4a;
      }
    </style>
  </defs>
  <g id="Capa_2-2" data-name="Capa 2">
    <g>
      <path class="cls-1" d="m12.79,122.72c-2.1,0-4.2-.06-6.28-.19-2.09-.13-4.25-.43-6.5-.91v-37.2c1.77-.33,3.71-.58,5.81-.75s4.06-.25,5.87-.25c2.44,0,4.68.18,6.73.53,2.05.35,3.81.95,5.29,1.8,1.48.85,2.63,1.96,3.46,3.35.83,1.38,1.25,3.09,1.25,5.12,0,3.06-1.48,5.48-4.43,7.25,2.44.92,4.1,2.18,4.98,3.76.89,1.59,1.33,3.38,1.33,5.37,0,4.02-1.47,7.05-4.4,9.08-2.93,2.03-7.3,3.04-13.09,3.04Zm-4.37-23.8h4.21c2.66,0,4.56-.34,5.7-1.02,1.14-.68,1.72-1.78,1.72-3.29s-.59-2.64-1.77-3.27c-1.18-.63-2.92-.94-5.2-.94-.74,0-1.53,0-2.38.03-.85.02-1.61.06-2.27.14v8.36Zm0,6.59v9.91c.63.07,1.31.13,2.05.17.74.04,1.55.06,2.44.06,2.58,0,4.67-.37,6.25-1.11,1.59-.74,2.38-2.1,2.38-4.1,0-1.77-.66-3.04-1.99-3.79-1.33-.76-3.23-1.13-5.7-1.13h-5.42Z"/>
      <path class="cls-1" d="m61.5,121.22c-1.4.41-3.21.78-5.42,1.13-2.21.35-4.54.53-6.97.53s-4.53-.33-6.17-1c-1.64-.66-2.94-1.6-3.9-2.8-.96-1.2-1.64-2.63-2.05-4.29-.41-1.66-.61-3.49-.61-5.48v-16.22h8.25v15.22c0,2.66.35,4.58,1.05,5.76.7,1.18,2.01,1.77,3.93,1.77.59,0,1.22-.03,1.88-.08.66-.06,1.25-.12,1.77-.19v-22.47h8.25v28.12Z"/>
      <g>
        <path class="cls-1" d="m165.23,17.12c-5.95-3.93-12.65-4.7-19.59-4.13-1.03.08-2.06.16-3.09.23-.02-.19-.04-.39-.06-.58,1.05-.71,2.11-1.42,3.33-2.25-.82-.66-1.35-1.16-1.94-1.56-15.39-10.46-31.62-11.67-48.15-3.41-13.2,6.6-26.08,13.68-40.58,17.37-8.79,2.24-16.1,7.38-21.56,14.89-.85,1.17-2.2,2.08-3.49,2.8-8.24,4.6-12.18,4.64-14.79,8.09-1.35,1.79-2.44,5.04-.56,11.45.08-1.43.4-3.58,1.67-5.74,1.34-2.29,4.05-2.71,4.76-4.66,1.72-4.72,5.75-5.77,9.63-7.55-2.63,7.02-1.61,13.73.3,20.5.32,1.14.65,2.46.68,4.05,0,0,.02,1.08-.13,2.18-.33,2.33-3.15,6.77-8.17,11.21,1.07.18,3.76.77,6.19,3.04,2.06,1.92,2.89,4.09,3.21,5.13,2.29-2.28,3.87-4.36,4.89-5.87,1.01-1.48,1.72-2.76,2.04-3.34.92-1.68,1.47-2.98,1.58-3.23,2.11-5.01,5.24-9.14,9.87-11.85,13.32-7.8,26.69-7.56,39.78.53,5.28,3.27,10.69,5.8,17.01,5.56,2.56-.1,5.11-.6,7.98-.96-.85,1.02-1.52,1.83-2.87,3.47,5.87-.41,10.81-.75,15.74-1.09.57.95,1.28,2.54.69,3.89-.15.36-.49.92-3.53,2.62-1.04.58-1.8,1.02-3,1.56-2.26,1.03-3.6,1.63-5.33,1.85-1.1.14-3.02.21-5.43-.67h0c-.7-.3-1.7-.61-2.99-.92-1.29-.31-2.71-.47-4.26-.47-4.17,0-7.32,1.11-9.44,3.32-2.12,2.21-3.18,5.2-3.18,8.97v30.67h8.25v-22.25h10.19v-6.86h-10.19v-1.44c0-.77.08-1.49.25-2.16.17-.66.44-1.24.83-1.72.39-.48.92-.86,1.61-1.13s1.52-.42,2.52-.42c.74,0,1.54.08,2.41.25.86.16,1.65.41,2.39.74,0,0,0,0,0,0,.43.17,1.08.4,1.88.6,3.85.96,7.1.25,8.87-.16,1.66-.39,3.53-1.17,7.28-2.75,1.52-.64,2.46-1.08,3.4-1.56,1.49-.77,2.94-1.64,4.44-2.65,4.77-3.22,5.39-5.23,4.1-10.93-.83-3.65-1.32-7.38-1.97-11.07.27-.07.53-.14.8-.21,1.3,1.31,2.59,2.63,3.95,4.01.95-.53,1.81-1,2.65-1.46,1.57,2.45,3.02,4.69,4.6,7.14,12.39-9.53,19.25-21.77,21.49-36.73.96-6.39-1.87-10.98-6.96-14.35Zm.33,5.94c-1.21.06-2.47-.05-3.63.23-2.62.61-3.86,3.12-4,6.26-.07,1.43-.95,3.24-2.07,4.05-.83.61-3.14.39-3.86-.36-.96-1-1.65-3-1.36-4.35,1.18-5.61,7.19-9.1,12.5-7.54.91.27,1.75.81,2.62,1.23-.07.16-.13.32-.2.47Z"/>
        <path class="cls-1" d="m77.74,89.5c.17-.66.44-1.24.83-1.72.39-.48.92-.86,1.61-1.13.68-.28,1.52-.42,2.52-.42.74,0,1.54.08,2.41.25.87.17,1.67.42,2.41.75l1.6-6.59c-.7-.29-1.7-.6-2.99-.91-1.29-.31-2.71-.47-4.26-.47-4.17,0-7.32,1.11-9.44,3.32-2.12,2.21-3.18,5.2-3.18,8.97v30.67h8.25v-22.25h22.19v-6.86h-22.19v-1.44c0-.77.08-1.49.25-2.16Z"/>
      </g>
      <path class="cls-1" d="m125.82,92.33c2.44,0,4.46.28,6.09.83,1.62.55,2.92,1.35,3.9,2.38.98,1.03,1.67,2.29,2.08,3.76.41,1.48.61,3.12.61,4.93v17.16c-1.18.26-2.82.56-4.93.91s-4.65.53-7.64.53c-1.88,0-3.59-.17-5.12-.5s-2.85-.88-3.96-1.63c-1.11-.76-1.96-1.74-2.55-2.96-.59-1.22-.89-2.71-.89-4.48s.34-3.14,1.02-4.32c.68-1.18,1.6-2.12,2.74-2.82,1.14-.7,2.45-1.21,3.93-1.52,1.48-.31,3.01-.47,4.59-.47,1.07,0,2.02.05,2.85.14.83.09,1.5.21,2.02.36v-.77c0-1.4-.42-2.53-1.27-3.38-.85-.85-2.32-1.27-4.43-1.27-1.4,0-2.79.1-4.15.3-1.37.2-2.55.49-3.54.86l-1.05-6.64c.48-.15,1.08-.3,1.8-.47s1.5-.31,2.35-.44c.85-.13,1.74-.24,2.68-.33.94-.09,1.89-.14,2.85-.14Zm.66,24.13c.81,0,1.59-.02,2.33-.06.74-.04,1.33-.09,1.77-.17v-6.25c-.33-.07-.83-.15-1.49-.22-.67-.07-1.27-.11-1.83-.11-.78,0-1.5.05-2.19.14-.68.09-1.28.27-1.8.53-.52.26-.92.61-1.22,1.05-.3.44-.44,1-.44,1.66,0,1.29.43,2.19,1.3,2.68.87.5,2.06.75,3.57.75Z"/>
      <path class="cls-1" d="m157.59,122.77c-2.4-.04-4.35-.3-5.84-.77-1.49-.48-2.68-1.15-3.54-2.02-.87-.87-1.46-1.92-1.77-3.16-.31-1.24-.47-2.63-.47-4.18v-32.05l8.25-1.33v31.72c0,.74.05,1.4.17,1.99.11.59.32,1.09.64,1.49.31.41.77.74,1.36,1,.59.26,1.38.42,2.38.5l-1.16,6.81Z"/>
      <path class="cls-1" d="m190.7,107.6c0,2.29-.33,4.38-1,6.28-.67,1.9-1.62,3.52-2.88,4.87-1.25,1.35-2.76,2.39-4.51,3.13s-3.72,1.11-5.89,1.11-4.09-.37-5.84-1.11c-1.75-.74-3.26-1.78-4.51-3.13-1.25-1.35-2.23-2.97-2.93-4.87-.7-1.9-1.05-3.99-1.05-6.28s.36-4.37,1.08-6.25c.72-1.88,1.72-3.49,2.99-4.82s2.79-2.36,4.54-3.1c1.75-.74,3.66-1.11,5.73-1.11s4.03.37,5.78,1.11c1.75.74,3.26,1.77,4.51,3.1,1.25,1.33,2.23,2.93,2.93,4.82.7,1.88,1.05,3.97,1.05,6.25Zm-8.41,0c0-2.55-.51-4.55-1.52-6.01-1.01-1.46-2.46-2.19-4.34-2.19s-3.34.73-4.37,2.19c-1.03,1.46-1.55,3.46-1.55,6.01s.52,4.57,1.55,6.06c1.03,1.49,2.49,2.24,4.37,2.24s3.33-.75,4.34-2.24,1.52-3.52,1.52-6.06Z"/>
    </g>
    <g>
      <path class="cls-2" d="m168.3,134.36c.07.45.14,1.09.06,1.86-.07.67-.13,1.29-.46,1.8-.79,1.21-2.69,1.14-2.96,1.13-.53-.01-1.29.03-2.16.28-2.69.79-4.07,2.98-4.37,3.55-.93,1.75-1.06,3.27-1.14,5.62-.04,1.12.01,2.14.1,3.02-.59,1.45-1.4,3.01-2.55,4.43-1.35,1.68-2.92,2.88-3.04,2.98-1.21.91-2.35,1.53-3.24,1.93,0,0,0,0,0,0-.77.29-1.63.52-2.57.69-.94.17-1.85.25-2.74.25-1.85,0-3.07-.52-3.68-1.55-.61-1.03-.91-2.42-.91-4.15v-10.24h9.91v-6.86h-9.91v-8.58l-8.25,1.33v24.47c0,1.88.17,3.6.53,5.15.35,1.55.97,2.87,1.85,3.96.89,1.09,2.07,1.94,3.54,2.55,1.47.61,3.34.91,5.59.91,1.77,0,3.27-.15,4.48-.44s2.33-.65,3.32-1.05h0c.21-.08.51-.2.86-.38,3.33-1.64,4.84-4.81,5.83-6.96,1.33-2.88,1.93-5.79,2.19-8.26.55-.96,1.31-1.91,2.4-2.6,1.29-.82,1.69-.65,3.7-1.4,2.15-.8,4.13-2.31,4.98-4.44.41-1.04.54-2.17.5-3.28-.08-2.03-.73-4.03-1.87-5.71Z"/>
      <path class="cls-2" d="m62.4,148.26c-.24-3.41-.52-6.7-.83-9.85-.31-3.16-.66-6.01-1.02-8.55h-7.86c-.67,1.22-1.43,2.72-2.3,4.51-.87,1.79-1.78,3.73-2.72,5.81-.94,2.09-1.88,4.22-2.8,6.39-.93,2.18-1.79,4.23-2.61,6.14-.81-1.92-1.68-3.97-2.61-6.14-.93-2.18-1.86-4.31-2.8-6.39-.94-2.08-1.85-4.02-2.72-5.81-.87-1.79-1.64-3.29-2.3-4.51h-8.25c-.37,2.55-.71,5.4-1.02,8.55-.31,3.16-.59,6.44-.83,9.85-.24,3.41-.46,6.84-.66,10.27-.2,3.43-.38,6.66-.53,9.69h8.41c.11-3.73.26-7.79.44-12.18.18-4.39.46-8.82.83-13.29.67,1.55,1.41,3.27,2.22,5.15.81,1.88,1.62,3.76,2.42,5.65.8,1.88,1.56,3.68,2.3,5.4s1.37,3.18,1.89,4.4h6.03c.52-1.22,1.15-2.69,1.89-4.4s1.51-3.52,2.3-5.4c.8-1.88,1.6-3.76,2.42-5.65.81-1.88,1.55-3.6,2.22-5.15.37,4.47.65,8.89.83,13.29.18,4.39.33,8.45.44,12.18h8.41c-.15-3.03-.32-6.25-.53-9.69-.2-3.43-.42-6.85-.66-10.27Z"/>
      <path class="cls-2" d="m82.29,138.33c-1.77,0-3.5.33-5.18,1-1.68.66-3.16,1.64-4.46,2.93-1.29,1.29-2.33,2.91-3.13,4.84-.79,1.94-1.19,4.2-1.19,6.78,0,2.14.3,4.13.91,5.98.61,1.85,1.55,3.44,2.82,4.79,1.27,1.35,2.88,2.41,4.82,3.18,1.94.78,4.22,1.16,6.84,1.16,1.03,0,2.07-.06,3.1-.17,1.03-.11,2-.25,2.91-.42.9-.17,1.72-.36,2.46-.58.74-.22,1.33-.44,1.77-.66l-1.11-6.7c-.92.41-2.11.75-3.57,1.02-1.46.28-2.94.42-4.46.42-2.36,0-4.24-.5-5.65-1.49-1.4-1-2.2-2.34-2.38-4.04h18.71c.04-.44.07-.95.11-1.52.04-.57.06-1.1.06-1.58,0-4.91-1.2-8.63-3.6-11.15-2.4-2.53-5.67-3.79-9.8-3.79Zm-5.48,12.4c.11-.7.29-1.39.53-2.08.24-.68.58-1.28,1.02-1.8.44-.52,1-.93,1.66-1.25.66-.31,1.46-.47,2.38-.47s1.76.17,2.41.5c.65.33,1.18.76,1.61,1.27.42.52.74,1.11.94,1.77.2.66.32,1.35.36,2.05h-10.9Z"/>
      <path class="cls-2" d="m121.51,141.54c-.98-1.03-2.28-1.83-3.9-2.38-1.62-.55-3.65-.83-6.09-.83-.96,0-1.91.05-2.85.14-.94.09-1.84.2-2.69.33-.85.13-1.63.28-2.35.44s-1.32.32-1.8.47l1.05,6.64c1-.37,2.18-.65,3.54-.86,1.36-.2,2.75-.3,4.15-.3,2.1,0,3.58.42,4.43,1.27.85.85,1.27,1.97,1.27,3.38v.77c-.52-.15-1.19-.27-2.02-.36-.83-.09-1.78-.14-2.85-.14-1.59,0-3.12.16-4.59.47-1.48.31-2.79.82-3.93,1.52-1.14.7-2.06,1.64-2.74,2.82-.68,1.18-1.02,2.62-1.02,4.32s.29,3.27.89,4.48c.59,1.22,1.44,2.21,2.55,2.96,1.11.76,2.43,1.3,3.96,1.63,1.53.33,3.24.5,5.12.5,2.99,0,5.54-.18,7.64-.53s3.75-.65,4.93-.91v-17.16c0-1.81-.2-3.45-.61-4.93-.41-1.48-1.1-2.73-2.08-3.76Zm-5.23,20.7c-.44.07-1.03.13-1.77.17-.74.04-1.51.06-2.33.06-1.51,0-2.7-.25-3.57-.75-.87-.5-1.3-1.39-1.3-2.68,0-.66.15-1.22.44-1.66.29-.44.7-.79,1.22-1.05.52-.26,1.12-.43,1.8-.53.68-.09,1.41-.14,2.19-.14.55,0,1.16.04,1.83.11.66.07,1.16.15,1.49.22v6.25Z"/>
    </g>
  </g>
</svg>